<?xml version="1.0" encoding="UTF-8"?>
<svg id="Capa_2" data-name="Capa 2" xmlns="http://www.w3.org/2000/svg" viewBox="0 0 507.01 70.02">
  <defs>
    <style>
      .cls-1, .cls-2 {
        fill: #fff;
      }

      .cls-3 {
        letter-spacing: -.03em;
      }

      .cls-2 {
        font-family: MyriadPro-Regular, 'Myriad Pro';
        font-size: 32.44px;
      }

      .cls-4 {
        letter-spacing: 0em;
      }

      .cls-5 {
        letter-spacing: 0em;
      }

      .cls-6 {
        stroke: #fff;
        stroke-miterlimit: 10;
      }

      .cls-7 {
        letter-spacing: -.02em;
      }

      .cls-8 {
        letter-spacing: 0em;
      }
    </style>
  </defs>
  <g id="Textos">
    <g>
      <text class="cls-2" transform="translate(86.18 48.89)"><tspan class="cls-7" x="0" y="0">P</tspan><tspan x="16.54" y="0">si</tspan><tspan class="cls-8" x="36.98" y="0">c</tspan><tspan x="51.31" y="0">ólogo Juan </tspan><tspan class="cls-3" x="207.79" y="0">F</tspan><tspan x="222.58" y="0">e</tspan><tspan class="cls-4" x="238.83" y="0">r</tspan><tspan x="249.56" y="0">nando Sie</tspan><tspan class="cls-4" x="384.01" y="0">r</tspan><tspan class="cls-5" x="394.75" y="0">r</tspan><tspan x="405.19" y="0">a</tspan></text>
      <g>
        <circle class="cls-6" cx="35.01" cy="35.01" r="34.51"/>
        <path class="cls-1" d="M20.52,21.99c1.44-.41,2.21-1.17,2.27-2.68,.02-.59-.29-1.85,.08-2.33,.86-1.12,.47,.41,.73,.24-.09,.06-.46-.34-.53-.42-.64-.68-.87-1.67-.65-2.57,.45-1.9,2.88-3.2,4.74-3.06,.43,.03,1.07,.11,1.42,.36,.98,.69,.18,.59,.06,.07-.14-.63,.59-1.41,1.07-1.66,.53-.28,1.2-.42,1.79-.53,1.11-.22,2.2-.08,3.21,.44,.17,.09,.38,.2,.54,.32,.06,.05,.52,.67,.59,.7,.13,.05-.07,.04,.23,0,.52-.07,.98-.38,1.53-.44,1.41-.15,3.11,.3,4.26,1.13,.67,.49,1.34,1.34,1.33,2.22s-.01,.05-1.02,.55c.12-.06,.29-.11,.42-.13,.52-.08,1.05-.06,1.56,.07,1.1,.28,1.95,1.04,2.2,2.18,.11,.52,.07,1.1-.1,1.6-.06,.18-.18,.47-.31,.61l-.28,.37c-.56-.05-.71-.12-.45-.2,.25-.26,.97,.1,1.17,.27,.4,.34,.48,.99,.57,1.47,.27,1.34,.24,3.99-1.91,3.34s-2.79-3.64-4.36-5c-.76-.65-2.99-1.95-3.38-.26-.29,1.27,1.13,2.07,2.17,1.48,1.37-.78,1.49-2.79,.98-4.1-.56-1.44-1.88-2.48-3.47-2.39-.95,.06-1.82,.52-2.64,.96-1.21,.65-2.42,1.21-3.77,1.51-.58,.13-1.2,.26-1.79,.25-.17,0-.54,.01-.7-.08l-.37-.14,.47-1.13c.47-.33,1.47,.08,1.86,.34,.71,.48,1.15,1.32,1.44,2.11,.67,1.83,.74,4.45,2.48,5.69,1.17,.83,3.09,.48,3.28-1.13,.23-1.92-1.77-2.73-3.3-3.05-2.1-.44-4.3-.45-6.27,.49-1.77,.84-3.17,2.25-4.82,3.26-.93,.57-2.37,1.32-3.45,.74-.8-.43-1.2-1.39-1.43-2.21-1.09-3.79,1.24-7.57,3.94-10.09,2.22-2.06,5.11-3.46,8.1-3.95,4.22-.69,8.97-.24,12.68,1.97s6.35,5.92,6.9,10.31c.37,2.95,.09,5.95,.56,8.9,.2,1.26,.5,2.68,1.19,3.77,.4,.63,.96,1.16,1.4,1.76,.18,.25,.69,.75,.67,1.08-.06,.76-1.26,.88-1.8,1.02-.69,.18-1.42,.45-1.86,1.04-.54,.74-.12,1.58-.59,2.32-.39,.62-.65,.75-.61,1.56,.04,.66-.02,1.05-.28,1.66-.16,.4-.28,.79-.32,1.23-.07,.81,.47,1.93-.34,2.46-.71,.47-2.05,.29-2.86,.23-1.58-.11-2.98-1.06-4.52-1.13-2.81-.12-4.07,3.46-4.44,5.73s-.53,4.34-.66,6.52c-.05,.8,1.2,.8,1.25,0,.15-2.52,.16-5.41,.98-7.82,.31-.91,.8-2.07,1.56-2.69,.99-.81,1.88-.34,2.92,.04,1.81,.65,4.91,1.28,6.63,.07,.74-.52,.9-1.24,.81-2.09-.07-.7-.15-1.24,.09-1.93,.22-.61,.53-1.12,.51-1.8,0-.35-.17-.7,.02-1.04,.06-.11,.29-.14,.37-.25,.36-.5,.49-.71,.49-1.36,0-1.12,.17-1.27,1.17-1.55,.67-.18,1.35-.29,1.92-.72,1.92-1.45-.22-3.4-1.21-4.66-1.09-1.4-1.32-3.59-1.46-5.32-.17-2.23-.13-4.47-.32-6.7-.45-5.07-3.42-9.38-7.82-11.88s-10.08-2.89-14.81-1.62c-4.35,1.16-8.01,4-10.3,7.86-1.2,2.03-1.8,4.29-1.35,6.64,.35,1.81,1.35,3.97,3.46,4.1,2.47,.16,4.61-1.97,6.46-3.28,1.29-.91,2.65-1.59,4.25-1.69,1.02-.06,5.16-.01,5.25,1.64l-.92,.76c-.44-.19-.77-.49-.99-.91-.27-.44-.43-.93-.59-1.42-.22-.7-.36-1.42-.57-2.12-.37-1.26-.91-2.56-1.97-3.39-1.43-1.13-5.18-1.08-4.73,1.56,.41,2.47,4.47,1.41,5.91,.93s2.75-1.5,4.22-1.94c1.74-.52,3.27,.86,3.14,2.66-.04,.48-.32,.72-.44,1.11-.17,.56-.73,.09,.16,.57,.76,.41,1.31,1.12,1.79,1.82,.78,1.15,1.41,2.44,2.54,3.3,2.02,1.53,4.48,.52,4.8-2.01,.22-1.8-.28-4.62-2.44-4.94-1.78-.27-3.34,2.01-1.28,2.9s3.21-2.52,2.99-4c-.33-2.29-2.47-3.67-4.7-3.54-.61,.04-1.46,.18-1.82,.74-.5,.76,.13,1.78,.87,2.11,.81,.36,1.82-.02,2.25-.78s.22-1.85-.12-2.62c-.75-1.73-2.62-2.65-4.38-3.03-1.5-.32-5.21-.28-5.49,1.87-.1,.76,.44,1.69,1.25,1.77,.89,.09,1.51-.91,1.6-1.68,.28-2.23-2.97-3.3-4.7-3.25-2.21,.07-4.86,1-4.99,3.56-.11,2,2.93,2.4,2.88,.48-.07-2.48-3.93-2.38-5.46-1.75-1.91,.78-3.61,2.19-3.73,4.39-.07,1.32,1.81,5.25,3.44,3.33,1.39-1.66-.59-3.35-2.24-2.19-.69,.49-.77,1.04-.75,1.83,.03,1.47,.33,2.62-1.34,3.09-.77,.22-.44,1.43,.33,1.21h0Z"/>
        <path class="cls-1" d="M26.85,35.18c.58-2.01,1.54-3.91,2.88-5.52,.92-1.11,2.93-2.39,2.46-4.08-.42-1.5-2.27-2.52-3.71-2.72-1.36-.19-2.73,.3-3.78,1.17-.85,.71-1.78,1.88-1.3,3.04,.57,1.39,2.39,1.58,3.62,1.13,.8-.3,1.55-.66,2.38-.87,1.05-.27,2.13-.39,3.21-.47,.92-.07,1.84-.13,2.77-.07,.75,.05,1.49,.19,2.23,.23,3.47,.16,5.18-3.82,4.2-6.74-.26-.76-1.46-.43-1.21,.33,.66,1.97-.16,5.08-2.66,5.17-1.12,.04-2.24-.26-3.36-.26-1.5,0-3.04,.14-4.51,.4-.72,.13-1.43,.3-2.12,.55-.61,.22-1.2,.59-1.85,.7-.44,.07-1.3,0-1.53-.51-.25-.56,.46-1.24,.83-1.57,.66-.59,1.53-.99,2.43-1.01,1-.02,3.61,.96,3.09,2.33-.28,.76-1.18,1.36-1.71,1.95s-1.02,1.24-1.47,1.9c-.94,1.41-1.63,2.97-2.1,4.6-.22,.77,.98,1.1,1.21,.33h0Z"/>
        <path class="cls-1" d="M35.8,59.5c-.85-.02-1.74,.46-2.16,1.21-.5,.89-.26,1.94,.35,2.7,.51,.65,1.36,1.12,2.2,1.05,.62-.05,1.22-.32,1.66-.77,.47-.48,.67-1.09,.58-1.75s-.34-1.29-.86-1.72-1.12-.68-1.76-.71c-.33-.02-.64,.3-.62,.62,.02,.35,.27,.61,.62,.62,.01,0,.21,.03,.08,0,.06,.01,.11,.02,.16,.04,.05,.01,.1,.03,.15,.05,.15,.05-.08-.05,0,0,.16,.09,.33,.15,.48,.26,.03,.02,.11,.09,.03,.02,.05,.04,.09,.08,.13,.12,0,0,.12,.15,.07,.08,.04,.05,.07,.11,.1,.17,.02,.04,.04,.07,.05,.11-.06-.12,.01,.04,.02,.06,.03,.09,.05,.19,.07,.28,0,.03,.01,.06,.02,.1,0,.02,.03,.18,.01,.05,0,.06,.01,.13,.01,.19,0,.02-.03,.22,0,.08,0,.03-.01,.06-.02,.09,0,.03-.07,.17,0,.04-.02,.05-.05,.09-.07,.14-.02,.03-.14,.19-.05,.09-.06,.07-.12,.13-.19,.19-.01,.01-.16,.11-.05,.04-.05,.03-.09,.06-.14,.09-.03,.02-.07,.04-.1,.05-.01,0-.18,.08-.06,.03-.05,.02-.11,.04-.16,.05-.03,0-.26,.05-.11,.03-.09,.01-.17,.01-.26,.01-.03,0-.19-.03-.03,0-.05,0-.09-.02-.14-.03-.08-.02-.15-.04-.22-.07,.15,.05,.02,0-.01,0-.05-.03-.1-.05-.15-.08-.06-.04-.11-.07-.17-.11-.11-.08,.1,.1,0,0-.03-.02-.05-.05-.08-.07-.09-.08-.17-.16-.24-.25-.05-.06-.07-.14,.03,.04,0-.02-.02-.03-.03-.04-.06-.09-.12-.19-.17-.29-.02-.04-.04-.07-.05-.11,0,.02,.05,.13,.01,.02-.03-.1-.06-.19-.08-.29-.05-.16,0,.12,0-.05,0-.04,0-.07,0-.11,0-.06,0-.12,0-.17-.02,.13,.03-.11,.04-.14,.04-.18-.05,.08,.02-.06,.02-.05,.05-.09,.07-.13,.02-.02,.12-.15,.02-.03,.04-.05,.08-.09,.13-.14,.03-.03,.05-.05,.08-.07,.12-.11-.08,.04,.02-.02,.07-.05,.15-.09,.22-.14,.02-.01,.04-.02,.06-.03,.08-.04,.14-.01-.02,0,.04,0,.09-.03,.13-.05,.07-.02,.15-.04,.23-.05-.13,.02,.03,0,.05,0,.04,0,.09,0,.13,0,.33,0,.64-.29,.62-.62s-.27-.62-.62-.62Z"/>
      </g>
    </g>
  </g>
</svg>